<svg width="1400" height="60" viewBox="0 0 1400 60" fill="none" xmlns="http://www.w3.org/2000/svg">
<rect width="1400" height="60" rx="4" fill="#373A3C"/>
<path d="M555.336 28.3359V32.5781C555.211 32.7448 555.021 32.9531 554.766 33.2031C554.516 33.4531 554.164 33.6745 553.711 33.8672C553.258 34.0599 552.664 34.1562 551.93 34.1562C551.341 34.1562 550.802 34.0573 550.312 33.8594C549.828 33.6615 549.409 33.3646 549.055 32.9688C548.706 32.5677 548.435 32.0703 548.242 31.4766C548.049 30.8776 547.953 30.1771 547.953 29.375V27.2422C547.953 26.4453 548.034 25.7474 548.195 25.1484C548.357 24.5495 548.596 24.0521 548.914 23.6562C549.237 23.2604 549.635 22.9635 550.109 22.7656C550.589 22.5677 551.146 22.4688 551.781 22.4688C552.516 22.4688 553.141 22.6068 553.656 22.8828C554.172 23.1589 554.57 23.5573 554.852 24.0781C555.138 24.599 555.299 25.224 555.336 25.9531H553.898C553.862 25.4844 553.763 25.0833 553.602 24.75C553.44 24.4115 553.211 24.1536 552.914 23.9766C552.617 23.7943 552.24 23.7031 551.781 23.7031C551.344 23.7031 550.974 23.776 550.672 23.9219C550.37 24.0677 550.122 24.2865 549.93 24.5781C549.742 24.8698 549.604 25.237 549.516 25.6797C549.432 26.1224 549.391 26.638 549.391 27.2266V29.375C549.391 29.9792 549.451 30.5052 549.57 30.9531C549.69 31.401 549.859 31.7708 550.078 32.0625C550.302 32.3542 550.57 32.5729 550.883 32.7188C551.195 32.8594 551.547 32.9297 551.938 32.9297C552.38 32.9297 552.729 32.8828 552.984 32.7891C553.24 32.6953 553.435 32.5885 553.57 32.4688C553.711 32.349 553.823 32.2526 553.906 32.1797V29.5547H551.82V28.3359H555.336ZM561.617 32.5547V27.9688C561.617 27.6354 561.565 27.3672 561.461 27.1641C561.362 26.9609 561.211 26.8125 561.008 26.7188C560.81 26.625 560.56 26.5781 560.258 26.5781C559.966 26.5781 559.714 26.638 559.5 26.7578C559.292 26.8776 559.13 27.0365 559.016 27.2344C558.906 27.4323 558.852 27.651 558.852 27.8906H557.469C557.469 27.5885 557.534 27.2891 557.664 26.9922C557.799 26.6953 557.992 26.4271 558.242 26.1875C558.492 25.9427 558.792 25.75 559.141 25.6094C559.495 25.4635 559.891 25.3906 560.328 25.3906C560.849 25.3906 561.31 25.4766 561.711 25.6484C562.112 25.8151 562.427 26.0885 562.656 26.4688C562.885 26.849 563 27.3542 563 27.9844V32.1562C563 32.4375 563.021 32.737 563.062 33.0547C563.109 33.3724 563.174 33.6458 563.258 33.875V34H561.828C561.76 33.8333 561.708 33.612 561.672 33.3359C561.635 33.0547 561.617 32.7943 561.617 32.5547ZM561.836 28.875L561.852 29.8906H560.891C560.562 29.8906 560.263 29.9271 559.992 30C559.727 30.0729 559.497 30.1797 559.305 30.3203C559.112 30.4557 558.964 30.625 558.859 30.8281C558.76 31.0312 558.711 31.263 558.711 31.5234C558.711 31.862 558.758 32.1328 558.852 32.3359C558.945 32.5339 559.086 32.6771 559.273 32.7656C559.461 32.8542 559.698 32.8984 559.984 32.8984C560.333 32.8984 560.641 32.8177 560.906 32.6562C561.172 32.4948 561.378 32.2995 561.523 32.0703C561.674 31.8411 561.745 31.6276 561.734 31.4297L562.039 32.0781C562.018 32.2812 561.951 32.5026 561.836 32.7422C561.727 32.9766 561.573 33.2031 561.375 33.4219C561.177 33.6354 560.943 33.8125 560.672 33.9531C560.406 34.0885 560.107 34.1562 559.773 34.1562C559.284 34.1562 558.854 34.0625 558.484 33.875C558.12 33.6875 557.836 33.4115 557.633 33.0469C557.43 32.6823 557.328 32.2318 557.328 31.6953C557.328 31.2891 557.398 30.9141 557.539 30.5703C557.68 30.2266 557.888 29.9297 558.164 29.6797C558.44 29.4245 558.786 29.2266 559.203 29.0859C559.625 28.9453 560.112 28.875 560.664 28.875H561.836ZM566.531 27.2266V34H565.156V25.5469H566.453L566.531 27.2266ZM566.25 29.4531L565.609 29.4297C565.604 28.8516 565.661 28.3177 565.781 27.8281C565.901 27.3333 566.081 26.9036 566.32 26.5391C566.565 26.1745 566.87 25.8932 567.234 25.6953C567.604 25.4922 568.034 25.3906 568.523 25.3906C568.846 25.3906 569.146 25.4479 569.422 25.5625C569.703 25.6719 569.948 25.8464 570.156 26.0859C570.365 26.3255 570.526 26.6328 570.641 27.0078C570.76 27.3828 570.82 27.8359 570.82 28.3672V34H569.438V28.4375C569.438 27.9948 569.378 27.6406 569.258 27.375C569.143 27.1094 568.979 26.9167 568.766 26.7969C568.552 26.6719 568.297 26.6094 568 26.6094C567.661 26.6094 567.378 26.6849 567.148 26.8359C566.924 26.987 566.745 27.1953 566.609 27.4609C566.479 27.7266 566.385 28.0312 566.328 28.375C566.276 28.7135 566.25 29.0729 566.25 29.4531ZM570.805 28.6562L569.883 28.9531C569.878 28.4896 569.935 28.0443 570.055 27.6172C570.174 27.1901 570.352 26.8099 570.586 26.4766C570.826 26.1432 571.122 25.8802 571.477 25.6875C571.831 25.4896 572.242 25.3906 572.711 25.3906C573.096 25.3906 573.438 25.4505 573.734 25.5703C574.031 25.6901 574.281 25.875 574.484 26.125C574.693 26.3698 574.849 26.6849 574.953 27.0703C575.057 27.4557 575.109 27.9141 575.109 28.4453V34H573.727V28.4297C573.727 27.9557 573.667 27.5885 573.547 27.3281C573.432 27.0625 573.268 26.8776 573.055 26.7734C572.841 26.6641 572.586 26.6094 572.289 26.6094C572.049 26.6094 571.836 26.6641 571.648 26.7734C571.466 26.8828 571.312 27.0339 571.188 27.2266C571.062 27.4141 570.966 27.6302 570.898 27.875C570.836 28.1198 570.805 28.3802 570.805 28.6562ZM580.219 34.1562C579.714 34.1562 579.258 34.0807 578.852 33.9297C578.445 33.7786 578.099 33.5495 577.812 33.2422C577.526 32.9297 577.307 32.5365 577.156 32.0625C577.005 31.5885 576.93 31.0286 576.93 30.3828V29.4297C576.93 28.6849 577.016 28.0547 577.188 27.5391C577.365 27.0234 577.602 26.6094 577.898 26.2969C578.195 25.9792 578.531 25.75 578.906 25.6094C579.281 25.4635 579.667 25.3906 580.062 25.3906C580.594 25.3906 581.047 25.4766 581.422 25.6484C581.797 25.8203 582.102 26.0755 582.336 26.4141C582.57 26.7526 582.742 27.1693 582.852 27.6641C582.966 28.1589 583.023 28.7292 583.023 29.375V30.1797H577.742V29H581.641V28.8047C581.62 28.3672 581.56 27.9818 581.461 27.6484C581.367 27.3151 581.211 27.0547 580.992 26.8672C580.773 26.6745 580.464 26.5781 580.062 26.5781C579.807 26.5781 579.57 26.6224 579.352 26.7109C579.138 26.7943 578.953 26.9427 578.797 27.1562C578.646 27.3646 578.526 27.6536 578.438 28.0234C578.354 28.3932 578.312 28.862 578.312 29.4297V30.3828C578.312 30.8359 578.354 31.2266 578.438 31.5547C578.526 31.8776 578.654 32.1458 578.82 32.3594C578.992 32.5677 579.201 32.724 579.445 32.8281C579.695 32.9271 579.979 32.9766 580.297 32.9766C580.76 32.9766 581.143 32.888 581.445 32.7109C581.747 32.5286 582.01 32.2969 582.234 32.0156L582.961 32.8828C582.81 33.0964 582.612 33.3021 582.367 33.5C582.128 33.6927 581.831 33.8516 581.477 33.9766C581.128 34.0964 580.708 34.1562 580.219 34.1562ZM588.797 31.8359C588.797 31.6224 588.745 31.4349 588.641 31.2734C588.536 31.112 588.365 30.9557 588.125 30.8047C587.891 30.6536 587.573 30.4922 587.172 30.3203C586.781 30.1589 586.43 30 586.117 29.8438C585.81 29.6823 585.549 29.5078 585.336 29.3203C585.122 29.1328 584.958 28.9167 584.844 28.6719C584.734 28.4219 584.68 28.1276 584.68 27.7891C584.68 27.4505 584.742 27.138 584.867 26.8516C584.997 26.5599 585.18 26.3047 585.414 26.0859C585.648 25.8672 585.93 25.6979 586.258 25.5781C586.586 25.4531 586.953 25.3906 587.359 25.3906C587.938 25.3906 588.43 25.5026 588.836 25.7266C589.242 25.9505 589.552 26.2578 589.766 26.6484C589.984 27.0339 590.094 27.4688 590.094 27.9531H588.719C588.719 27.7188 588.667 27.4974 588.562 27.2891C588.458 27.0807 588.305 26.9115 588.102 26.7812C587.898 26.6458 587.651 26.5781 587.359 26.5781C587.052 26.5781 586.802 26.6328 586.609 26.7422C586.417 26.8516 586.276 26.9948 586.188 27.1719C586.104 27.3438 586.062 27.5339 586.062 27.7422C586.062 27.8984 586.083 28.0339 586.125 28.1484C586.172 28.2578 586.25 28.362 586.359 28.4609C586.469 28.5547 586.617 28.6536 586.805 28.7578C586.997 28.8568 587.242 28.9714 587.539 29.1016C588.112 29.3255 588.594 29.5521 588.984 29.7812C589.375 30.0104 589.672 30.2786 589.875 30.5859C590.078 30.8932 590.18 31.2734 590.18 31.7266C590.18 32.0964 590.112 32.4323 589.977 32.7344C589.846 33.0312 589.659 33.2865 589.414 33.5C589.169 33.7135 588.875 33.8776 588.531 33.9922C588.193 34.1016 587.812 34.1562 587.391 34.1562C586.755 34.1562 586.216 34.0312 585.773 33.7812C585.336 33.526 585.003 33.1953 584.773 32.7891C584.549 32.3776 584.438 31.9375 584.438 31.4688H585.82C585.836 31.8646 585.924 32.1719 586.086 32.3906C586.253 32.6094 586.453 32.7604 586.688 32.8438C586.922 32.9271 587.156 32.9688 587.391 32.9688C587.698 32.9688 587.956 32.9245 588.164 32.8359C588.372 32.7422 588.529 32.6094 588.633 32.4375C588.742 32.2656 588.797 32.0651 588.797 31.8359Z" fill="white"/>
<path d="M617.877 26.1265C617.712 25.9578 617.443 25.9578 617.278 26.1265L612.006 31.5125L606.724 26.1265C606.558 25.9578 606.289 25.9578 606.124 26.1265C605.959 26.2951 605.959 26.5692 606.124 26.7378L611.696 32.419C611.778 32.5033 611.882 32.5455 611.995 32.5455C612.099 32.5455 612.213 32.5033 612.295 32.419L617.867 26.7378C618.043 26.5692 618.043 26.2951 617.877 26.1265Z" fill="#8DD83D"/>
<path d="M649.922 30.3828H651.359C651.323 31.1641 651.164 31.8385 650.883 32.4062C650.607 32.9688 650.203 33.401 649.672 33.7031C649.146 34.0052 648.487 34.1562 647.695 34.1562C647.128 34.1562 646.615 34.0443 646.156 33.8203C645.698 33.5964 645.305 33.276 644.977 32.8594C644.654 32.4375 644.406 31.9323 644.234 31.3438C644.062 30.7552 643.977 30.0938 643.977 29.3594V27.2578C643.977 26.5286 644.062 25.8698 644.234 25.2812C644.411 24.6927 644.664 24.1901 644.992 23.7734C645.326 23.3516 645.729 23.0286 646.203 22.8047C646.682 22.5807 647.224 22.4688 647.828 22.4688C648.568 22.4688 649.193 22.6172 649.703 22.9141C650.219 23.2057 650.615 23.6354 650.891 24.2031C651.172 24.7656 651.328 25.4557 651.359 26.2734H649.922C649.885 25.6745 649.792 25.1875 649.641 24.8125C649.49 24.4323 649.266 24.1536 648.969 23.9766C648.677 23.7943 648.297 23.7031 647.828 23.7031C647.411 23.7031 647.049 23.7865 646.742 23.9531C646.44 24.1198 646.19 24.3594 645.992 24.6719C645.799 24.9792 645.654 25.3516 645.555 25.7891C645.461 26.2214 645.414 26.7057 645.414 27.2422V29.3594C645.414 29.8594 645.453 30.3255 645.531 30.7578C645.615 31.1901 645.745 31.5703 645.922 31.8984C646.104 32.2214 646.341 32.474 646.633 32.6562C646.924 32.8385 647.279 32.9297 647.695 32.9297C648.221 32.9297 648.638 32.8438 648.945 32.6719C649.253 32.5 649.479 32.2266 649.625 31.8516C649.776 31.4766 649.875 30.987 649.922 30.3828ZM652.828 30.1797V29.375C652.828 28.7188 652.911 28.1432 653.078 27.6484C653.245 27.1484 653.477 26.7318 653.773 26.3984C654.07 26.0651 654.417 25.8151 654.812 25.6484C655.208 25.4766 655.633 25.3906 656.086 25.3906C656.549 25.3906 656.979 25.4766 657.375 25.6484C657.771 25.8151 658.117 26.0651 658.414 26.3984C658.716 26.7318 658.951 27.1484 659.117 27.6484C659.284 28.1432 659.367 28.7188 659.367 29.375V30.1797C659.367 30.8359 659.284 31.4141 659.117 31.9141C658.951 32.4089 658.719 32.8229 658.422 33.1562C658.125 33.4896 657.779 33.7396 657.383 33.9062C656.987 34.0729 656.56 34.1562 656.102 34.1562C655.643 34.1562 655.216 34.0729 654.82 33.9062C654.424 33.7396 654.076 33.4896 653.773 33.1562C653.477 32.8229 653.245 32.4089 653.078 31.9141C652.911 31.4141 652.828 30.8359 652.828 30.1797ZM654.211 29.375V30.1797C654.211 30.6432 654.258 31.0495 654.352 31.3984C654.445 31.7474 654.578 32.0391 654.75 32.2734C654.922 32.5078 655.122 32.6849 655.352 32.8047C655.581 32.9193 655.831 32.9766 656.102 32.9766C656.414 32.9766 656.688 32.9193 656.922 32.8047C657.161 32.6849 657.359 32.5078 657.516 32.2734C657.672 32.0391 657.789 31.7474 657.867 31.3984C657.945 31.0495 657.984 30.6432 657.984 30.1797V29.375C657.984 28.9115 657.938 28.5078 657.844 28.1641C657.75 27.8151 657.617 27.5234 657.445 27.2891C657.273 27.0495 657.07 26.8724 656.836 26.7578C656.607 26.638 656.357 26.5781 656.086 26.5781C655.82 26.5781 655.573 26.638 655.344 26.7578C655.115 26.8724 654.914 27.0495 654.742 27.2891C654.576 27.5234 654.445 27.8151 654.352 28.1641C654.258 28.5078 654.211 28.9115 654.211 29.375ZM662.531 27.3516V34H661.148V25.5469H662.453L662.531 27.3516ZM662.195 29.4531L661.633 29.4297C661.628 28.8516 661.693 28.3177 661.828 27.8281C661.969 27.3333 662.167 26.9036 662.422 26.5391C662.682 26.1745 662.992 25.8932 663.352 25.6953C663.711 25.4922 664.109 25.3906 664.547 25.3906C664.891 25.3906 665.203 25.4479 665.484 25.5625C665.766 25.6719 666.005 25.849 666.203 26.0938C666.401 26.3385 666.552 26.6562 666.656 27.0469C666.766 27.4323 666.82 27.9036 666.82 28.4609V34H665.438V28.4453C665.438 28.0026 665.388 27.6484 665.289 27.3828C665.195 27.112 665.049 26.9167 664.852 26.7969C664.659 26.6719 664.414 26.6094 664.117 26.6094C663.846 26.6094 663.594 26.6849 663.359 26.8359C663.125 26.987 662.919 27.1953 662.742 27.4609C662.57 27.7266 662.435 28.0312 662.336 28.375C662.242 28.7135 662.195 29.0729 662.195 29.4531ZM673 31.8359C673 31.6224 672.948 31.4349 672.844 31.2734C672.74 31.112 672.568 30.9557 672.328 30.8047C672.094 30.6536 671.776 30.4922 671.375 30.3203C670.984 30.1589 670.633 30 670.32 29.8438C670.013 29.6823 669.753 29.5078 669.539 29.3203C669.326 29.1328 669.161 28.9167 669.047 28.6719C668.938 28.4219 668.883 28.1276 668.883 27.7891C668.883 27.4505 668.945 27.138 669.07 26.8516C669.201 26.5599 669.383 26.3047 669.617 26.0859C669.852 25.8672 670.133 25.6979 670.461 25.5781C670.789 25.4531 671.156 25.3906 671.562 25.3906C672.141 25.3906 672.633 25.5026 673.039 25.7266C673.445 25.9505 673.755 26.2578 673.969 26.6484C674.188 27.0339 674.297 27.4688 674.297 27.9531H672.922C672.922 27.7188 672.87 27.4974 672.766 27.2891C672.661 27.0807 672.508 26.9115 672.305 26.7812C672.102 26.6458 671.854 26.5781 671.562 26.5781C671.255 26.5781 671.005 26.6328 670.812 26.7422C670.62 26.8516 670.479 26.9948 670.391 27.1719C670.307 27.3438 670.266 27.5339 670.266 27.7422C670.266 27.8984 670.286 28.0339 670.328 28.1484C670.375 28.2578 670.453 28.362 670.562 28.4609C670.672 28.5547 670.82 28.6536 671.008 28.7578C671.201 28.8568 671.445 28.9714 671.742 29.1016C672.315 29.3255 672.797 29.5521 673.188 29.7812C673.578 30.0104 673.875 30.2786 674.078 30.5859C674.281 30.8932 674.383 31.2734 674.383 31.7266C674.383 32.0964 674.315 32.4323 674.18 32.7344C674.049 33.0312 673.862 33.2865 673.617 33.5C673.372 33.7135 673.078 33.8776 672.734 33.9922C672.396 34.1016 672.016 34.1562 671.594 34.1562C670.958 34.1562 670.419 34.0312 669.977 33.7812C669.539 33.526 669.206 33.1953 668.977 32.7891C668.753 32.3776 668.641 31.9375 668.641 31.4688H670.023C670.039 31.8646 670.128 32.1719 670.289 32.3906C670.456 32.6094 670.656 32.7604 670.891 32.8438C671.125 32.9271 671.359 32.9688 671.594 32.9688C671.901 32.9688 672.159 32.9245 672.367 32.8359C672.576 32.7422 672.732 32.6094 672.836 32.4375C672.945 32.2656 673 32.0651 673 31.8359ZM675.906 30.1797V29.375C675.906 28.7188 675.99 28.1432 676.156 27.6484C676.323 27.1484 676.555 26.7318 676.852 26.3984C677.148 26.0651 677.495 25.8151 677.891 25.6484C678.286 25.4766 678.711 25.3906 679.164 25.3906C679.628 25.3906 680.057 25.4766 680.453 25.6484C680.849 25.8151 681.195 26.0651 681.492 26.3984C681.794 26.7318 682.029 27.1484 682.195 27.6484C682.362 28.1432 682.445 28.7188 682.445 29.375V30.1797C682.445 30.8359 682.362 31.4141 682.195 31.9141C682.029 32.4089 681.797 32.8229 681.5 33.1562C681.203 33.4896 680.857 33.7396 680.461 33.9062C680.065 34.0729 679.638 34.1562 679.18 34.1562C678.721 34.1562 678.294 34.0729 677.898 33.9062C677.503 33.7396 677.154 33.4896 676.852 33.1562C676.555 32.8229 676.323 32.4089 676.156 31.9141C675.99 31.4141 675.906 30.8359 675.906 30.1797ZM677.289 29.375V30.1797C677.289 30.6432 677.336 31.0495 677.43 31.3984C677.523 31.7474 677.656 32.0391 677.828 32.2734C678 32.5078 678.201 32.6849 678.43 32.8047C678.659 32.9193 678.909 32.9766 679.18 32.9766C679.492 32.9766 679.766 32.9193 680 32.8047C680.24 32.6849 680.438 32.5078 680.594 32.2734C680.75 32.0391 680.867 31.7474 680.945 31.3984C681.023 31.0495 681.062 30.6432 681.062 30.1797V29.375C681.062 28.9115 681.016 28.5078 680.922 28.1641C680.828 27.8151 680.695 27.5234 680.523 27.2891C680.352 27.0495 680.148 26.8724 679.914 26.7578C679.685 26.638 679.435 26.5781 679.164 26.5781C678.898 26.5781 678.651 26.638 678.422 26.7578C678.193 26.8724 677.992 27.0495 677.82 27.2891C677.654 27.5234 677.523 27.8151 677.43 28.1641C677.336 28.5078 677.289 28.9115 677.289 29.375ZM685.711 22V34H684.336V22H685.711ZM690.922 34.1562C690.417 34.1562 689.961 34.0807 689.555 33.9297C689.148 33.7786 688.802 33.5495 688.516 33.2422C688.229 32.9297 688.01 32.5365 687.859 32.0625C687.708 31.5885 687.633 31.0286 687.633 30.3828V29.4297C687.633 28.6849 687.719 28.0547 687.891 27.5391C688.068 27.0234 688.305 26.6094 688.602 26.2969C688.898 25.9792 689.234 25.75 689.609 25.6094C689.984 25.4635 690.37 25.3906 690.766 25.3906C691.297 25.3906 691.75 25.4766 692.125 25.6484C692.5 25.8203 692.805 26.0755 693.039 26.4141C693.273 26.7526 693.445 27.1693 693.555 27.6641C693.669 28.1589 693.727 28.7292 693.727 29.375V30.1797H688.445V29H692.344V28.8047C692.323 28.3672 692.263 27.9818 692.164 27.6484C692.07 27.3151 691.914 27.0547 691.695 26.8672C691.477 26.6745 691.167 26.5781 690.766 26.5781C690.51 26.5781 690.273 26.6224 690.055 26.7109C689.841 26.7943 689.656 26.9427 689.5 27.1562C689.349 27.3646 689.229 27.6536 689.141 28.0234C689.057 28.3932 689.016 28.862 689.016 29.4297V30.3828C689.016 30.8359 689.057 31.2266 689.141 31.5547C689.229 31.8776 689.357 32.1458 689.523 32.3594C689.695 32.5677 689.904 32.724 690.148 32.8281C690.398 32.9271 690.682 32.9766 691 32.9766C691.464 32.9766 691.846 32.888 692.148 32.7109C692.451 32.5286 692.714 32.2969 692.938 32.0156L693.664 32.8828C693.513 33.0964 693.315 33.3021 693.07 33.5C692.831 33.6927 692.534 33.8516 692.18 33.9766C691.831 34.0964 691.411 34.1562 690.922 34.1562ZM699.5 31.8359C699.5 31.6224 699.448 31.4349 699.344 31.2734C699.24 31.112 699.068 30.9557 698.828 30.8047C698.594 30.6536 698.276 30.4922 697.875 30.3203C697.484 30.1589 697.133 30 696.82 29.8438C696.513 29.6823 696.253 29.5078 696.039 29.3203C695.826 29.1328 695.661 28.9167 695.547 28.6719C695.438 28.4219 695.383 28.1276 695.383 27.7891C695.383 27.4505 695.445 27.138 695.57 26.8516C695.701 26.5599 695.883 26.3047 696.117 26.0859C696.352 25.8672 696.633 25.6979 696.961 25.5781C697.289 25.4531 697.656 25.3906 698.062 25.3906C698.641 25.3906 699.133 25.5026 699.539 25.7266C699.945 25.9505 700.255 26.2578 700.469 26.6484C700.688 27.0339 700.797 27.4688 700.797 27.9531H699.422C699.422 27.7188 699.37 27.4974 699.266 27.2891C699.161 27.0807 699.008 26.9115 698.805 26.7812C698.602 26.6458 698.354 26.5781 698.062 26.5781C697.755 26.5781 697.505 26.6328 697.312 26.7422C697.12 26.8516 696.979 26.9948 696.891 27.1719C696.807 27.3438 696.766 27.5339 696.766 27.7422C696.766 27.8984 696.786 28.0339 696.828 28.1484C696.875 28.2578 696.953 28.362 697.062 28.4609C697.172 28.5547 697.32 28.6536 697.508 28.7578C697.701 28.8568 697.945 28.9714 698.242 29.1016C698.815 29.3255 699.297 29.5521 699.688 29.7812C700.078 30.0104 700.375 30.2786 700.578 30.5859C700.781 30.8932 700.883 31.2734 700.883 31.7266C700.883 32.0964 700.815 32.4323 700.68 32.7344C700.549 33.0312 700.362 33.2865 700.117 33.5C699.872 33.7135 699.578 33.8776 699.234 33.9922C698.896 34.1016 698.516 34.1562 698.094 34.1562C697.458 34.1562 696.919 34.0312 696.477 33.7812C696.039 33.526 695.706 33.1953 695.477 32.7891C695.253 32.3776 695.141 31.9375 695.141 31.4688H696.523C696.539 31.8646 696.628 32.1719 696.789 32.3906C696.956 32.6094 697.156 32.7604 697.391 32.8438C697.625 32.9271 697.859 32.9688 698.094 32.9688C698.401 32.9688 698.659 32.9245 698.867 32.8359C699.076 32.7422 699.232 32.6094 699.336 32.4375C699.445 32.2656 699.5 32.0651 699.5 31.8359Z" fill="white" fill-opacity="0.5"/>
<path d="M728.877 26.1265C728.712 25.9578 728.443 25.9578 728.278 26.1265L723.006 31.5125L717.724 26.1265C717.558 25.9578 717.289 25.9578 717.124 26.1265C716.959 26.2951 716.959 26.5692 717.124 26.7378L722.696 32.419C722.778 32.5033 722.882 32.5455 722.995 32.5455C723.099 32.5455 723.213 32.5033 723.295 32.419L728.867 26.7378C729.043 26.5692 729.043 26.2951 728.877 26.1265Z" fill="#8DD83D"/>
<path d="M763.922 30.3828H765.359C765.323 31.1641 765.164 31.8385 764.883 32.4062C764.607 32.9688 764.203 33.401 763.672 33.7031C763.146 34.0052 762.487 34.1562 761.695 34.1562C761.128 34.1562 760.615 34.0443 760.156 33.8203C759.698 33.5964 759.305 33.276 758.977 32.8594C758.654 32.4375 758.406 31.9323 758.234 31.3438C758.062 30.7552 757.977 30.0938 757.977 29.3594V27.2578C757.977 26.5286 758.062 25.8698 758.234 25.2812C758.411 24.6927 758.664 24.1901 758.992 23.7734C759.326 23.3516 759.729 23.0286 760.203 22.8047C760.682 22.5807 761.224 22.4688 761.828 22.4688C762.568 22.4688 763.193 22.6172 763.703 22.9141C764.219 23.2057 764.615 23.6354 764.891 24.2031C765.172 24.7656 765.328 25.4557 765.359 26.2734H763.922C763.885 25.6745 763.792 25.1875 763.641 24.8125C763.49 24.4323 763.266 24.1536 762.969 23.9766C762.677 23.7943 762.297 23.7031 761.828 23.7031C761.411 23.7031 761.049 23.7865 760.742 23.9531C760.44 24.1198 760.19 24.3594 759.992 24.6719C759.799 24.9792 759.654 25.3516 759.555 25.7891C759.461 26.2214 759.414 26.7057 759.414 27.2422V29.3594C759.414 29.8594 759.453 30.3255 759.531 30.7578C759.615 31.1901 759.745 31.5703 759.922 31.8984C760.104 32.2214 760.341 32.474 760.633 32.6562C760.924 32.8385 761.279 32.9297 761.695 32.9297C762.221 32.9297 762.638 32.8438 762.945 32.6719C763.253 32.5 763.479 32.2266 763.625 31.8516C763.776 31.4766 763.875 30.987 763.922 30.3828ZM766.828 30.1797V29.375C766.828 28.7188 766.911 28.1432 767.078 27.6484C767.245 27.1484 767.477 26.7318 767.773 26.3984C768.07 26.0651 768.417 25.8151 768.812 25.6484C769.208 25.4766 769.633 25.3906 770.086 25.3906C770.549 25.3906 770.979 25.4766 771.375 25.6484C771.771 25.8151 772.117 26.0651 772.414 26.3984C772.716 26.7318 772.951 27.1484 773.117 27.6484C773.284 28.1432 773.367 28.7188 773.367 29.375V30.1797C773.367 30.8359 773.284 31.4141 773.117 31.9141C772.951 32.4089 772.719 32.8229 772.422 33.1562C772.125 33.4896 771.779 33.7396 771.383 33.9062C770.987 34.0729 770.56 34.1562 770.102 34.1562C769.643 34.1562 769.216 34.0729 768.82 33.9062C768.424 33.7396 768.076 33.4896 767.773 33.1562C767.477 32.8229 767.245 32.4089 767.078 31.9141C766.911 31.4141 766.828 30.8359 766.828 30.1797ZM768.211 29.375V30.1797C768.211 30.6432 768.258 31.0495 768.352 31.3984C768.445 31.7474 768.578 32.0391 768.75 32.2734C768.922 32.5078 769.122 32.6849 769.352 32.8047C769.581 32.9193 769.831 32.9766 770.102 32.9766C770.414 32.9766 770.688 32.9193 770.922 32.8047C771.161 32.6849 771.359 32.5078 771.516 32.2734C771.672 32.0391 771.789 31.7474 771.867 31.3984C771.945 31.0495 771.984 30.6432 771.984 30.1797V29.375C771.984 28.9115 771.938 28.5078 771.844 28.1641C771.75 27.8151 771.617 27.5234 771.445 27.2891C771.273 27.0495 771.07 26.8724 770.836 26.7578C770.607 26.638 770.357 26.5781 770.086 26.5781C769.82 26.5781 769.573 26.638 769.344 26.7578C769.115 26.8724 768.914 27.0495 768.742 27.2891C768.576 27.5234 768.445 27.8151 768.352 28.1641C768.258 28.5078 768.211 28.9115 768.211 29.375ZM776.531 27.2266V34H775.156V25.5469H776.453L776.531 27.2266ZM776.25 29.4531L775.609 29.4297C775.604 28.8516 775.661 28.3177 775.781 27.8281C775.901 27.3333 776.081 26.9036 776.32 26.5391C776.565 26.1745 776.87 25.8932 777.234 25.6953C777.604 25.4922 778.034 25.3906 778.523 25.3906C778.846 25.3906 779.146 25.4479 779.422 25.5625C779.703 25.6719 779.948 25.8464 780.156 26.0859C780.365 26.3255 780.526 26.6328 780.641 27.0078C780.76 27.3828 780.82 27.8359 780.82 28.3672V34H779.438V28.4375C779.438 27.9948 779.378 27.6406 779.258 27.375C779.143 27.1094 778.979 26.9167 778.766 26.7969C778.552 26.6719 778.297 26.6094 778 26.6094C777.661 26.6094 777.378 26.6849 777.148 26.8359C776.924 26.987 776.745 27.1953 776.609 27.4609C776.479 27.7266 776.385 28.0312 776.328 28.375C776.276 28.7135 776.25 29.0729 776.25 29.4531ZM780.805 28.6562L779.883 28.9531C779.878 28.4896 779.935 28.0443 780.055 27.6172C780.174 27.1901 780.352 26.8099 780.586 26.4766C780.826 26.1432 781.122 25.8802 781.477 25.6875C781.831 25.4896 782.242 25.3906 782.711 25.3906C783.096 25.3906 783.438 25.4505 783.734 25.5703C784.031 25.6901 784.281 25.875 784.484 26.125C784.693 26.3698 784.849 26.6849 784.953 27.0703C785.057 27.4557 785.109 27.9141 785.109 28.4453V34H783.727V28.4297C783.727 27.9557 783.667 27.5885 783.547 27.3281C783.432 27.0625 783.268 26.8776 783.055 26.7734C782.841 26.6641 782.586 26.6094 782.289 26.6094C782.049 26.6094 781.836 26.6641 781.648 26.7734C781.466 26.8828 781.312 27.0339 781.188 27.2266C781.062 27.4141 780.966 27.6302 780.898 27.875C780.836 28.1198 780.805 28.3802 780.805 28.6562ZM788.578 27.2266V34H787.203V25.5469H788.5L788.578 27.2266ZM788.297 29.4531L787.656 29.4297C787.651 28.8516 787.708 28.3177 787.828 27.8281C787.948 27.3333 788.128 26.9036 788.367 26.5391C788.612 26.1745 788.917 25.8932 789.281 25.6953C789.651 25.4922 790.081 25.3906 790.57 25.3906C790.893 25.3906 791.193 25.4479 791.469 25.5625C791.75 25.6719 791.995 25.8464 792.203 26.0859C792.411 26.3255 792.573 26.6328 792.688 27.0078C792.807 27.3828 792.867 27.8359 792.867 28.3672V34H791.484V28.4375C791.484 27.9948 791.424 27.6406 791.305 27.375C791.19 27.1094 791.026 26.9167 790.812 26.7969C790.599 26.6719 790.344 26.6094 790.047 26.6094C789.708 26.6094 789.424 26.6849 789.195 26.8359C788.971 26.987 788.792 27.1953 788.656 27.4609C788.526 27.7266 788.432 28.0312 788.375 28.375C788.323 28.7135 788.297 29.0729 788.297 29.4531ZM792.852 28.6562L791.93 28.9531C791.924 28.4896 791.982 28.0443 792.102 27.6172C792.221 27.1901 792.398 26.8099 792.633 26.4766C792.872 26.1432 793.169 25.8802 793.523 25.6875C793.878 25.4896 794.289 25.3906 794.758 25.3906C795.143 25.3906 795.484 25.4505 795.781 25.5703C796.078 25.6901 796.328 25.875 796.531 26.125C796.74 26.3698 796.896 26.6849 797 27.0703C797.104 27.4557 797.156 27.9141 797.156 28.4453V34H795.773V28.4297C795.773 27.9557 795.714 27.5885 795.594 27.3281C795.479 27.0625 795.315 26.8776 795.102 26.7734C794.888 26.6641 794.633 26.6094 794.336 26.6094C794.096 26.6094 793.883 26.6641 793.695 26.7734C793.513 26.8828 793.359 27.0339 793.234 27.2266C793.109 27.4141 793.013 27.6302 792.945 27.875C792.883 28.1198 792.852 28.3802 792.852 28.6562ZM803.516 32.0469V25.5469H804.898V34H803.586L803.516 32.0469ZM803.773 30.2656L804.32 30.25C804.32 30.8125 804.271 31.3333 804.172 31.8125C804.078 32.2865 803.922 32.6979 803.703 33.0469C803.49 33.3958 803.206 33.6693 802.852 33.8672C802.497 34.0599 802.062 34.1562 801.547 34.1562C801.198 34.1562 800.88 34.0964 800.594 33.9766C800.312 33.8568 800.068 33.6719 799.859 33.4219C799.656 33.1719 799.497 32.8464 799.383 32.4453C799.273 32.0443 799.219 31.5625 799.219 31V25.5469H800.594V31.0156C800.594 31.3958 800.628 31.7109 800.695 31.9609C800.763 32.2057 800.854 32.401 800.969 32.5469C801.083 32.6875 801.211 32.7865 801.352 32.8438C801.492 32.901 801.635 32.9297 801.781 32.9297C802.271 32.9297 802.661 32.8125 802.953 32.5781C803.245 32.3385 803.453 32.0182 803.578 31.6172C803.708 31.2109 803.773 30.7604 803.773 30.2656ZM808.359 27.3516V34H806.977V25.5469H808.281L808.359 27.3516ZM808.023 29.4531L807.461 29.4297C807.456 28.8516 807.521 28.3177 807.656 27.8281C807.797 27.3333 807.995 26.9036 808.25 26.5391C808.51 26.1745 808.82 25.8932 809.18 25.6953C809.539 25.4922 809.938 25.3906 810.375 25.3906C810.719 25.3906 811.031 25.4479 811.312 25.5625C811.594 25.6719 811.833 25.849 812.031 26.0938C812.229 26.3385 812.38 26.6562 812.484 27.0469C812.594 27.4323 812.648 27.9036 812.648 28.4609V34H811.266V28.4453C811.266 28.0026 811.216 27.6484 811.117 27.3828C811.023 27.112 810.878 26.9167 810.68 26.7969C810.487 26.6719 810.242 26.6094 809.945 26.6094C809.674 26.6094 809.422 26.6849 809.188 26.8359C808.953 26.987 808.747 27.1953 808.57 27.4609C808.398 27.7266 808.263 28.0312 808.164 28.375C808.07 28.7135 808.023 29.0729 808.023 29.4531ZM816.211 25.5469V34H814.836V25.5469H816.211ZM814.758 23.3047C814.758 23.0703 814.823 22.8724 814.953 22.7109C815.083 22.5495 815.279 22.4688 815.539 22.4688C815.799 22.4688 815.995 22.5495 816.125 22.7109C816.26 22.8724 816.328 23.0703 816.328 23.3047C816.328 23.5286 816.26 23.7214 816.125 23.8828C815.995 24.0391 815.799 24.1172 815.539 24.1172C815.279 24.1172 815.083 24.0391 814.953 23.8828C814.823 23.7214 814.758 23.5286 814.758 23.3047ZM821.484 25.5469V26.6562H817.539V25.5469H821.484ZM818.828 23.4922H820.211V31.9062C820.211 32.1927 820.245 32.4089 820.312 32.5547C820.385 32.7005 820.477 32.7969 820.586 32.8438C820.695 32.8906 820.812 32.9141 820.938 32.9141C821.031 32.9141 821.135 32.9036 821.25 32.8828C821.365 32.8568 821.443 32.8359 821.484 32.8203L821.477 34C821.383 34.0365 821.258 34.0703 821.102 34.1016C820.945 34.138 820.747 34.1562 820.508 34.1562C820.211 34.1562 819.935 34.0859 819.68 33.9453C819.424 33.8047 819.219 33.5703 819.062 33.2422C818.906 32.9089 818.828 32.4609 818.828 31.8984V23.4922ZM825.094 33.125L826.977 25.5469H828.445L825.656 35.3047C825.589 35.513 825.497 35.737 825.383 35.9766C825.273 36.2214 825.133 36.4531 824.961 36.6719C824.789 36.8906 824.583 37.0677 824.344 37.2031C824.104 37.3438 823.823 37.4141 823.5 37.4141C823.401 37.4141 823.273 37.3984 823.117 37.3672C822.966 37.3359 822.857 37.3099 822.789 37.2891V36.1172C822.82 36.1224 822.87 36.1276 822.938 36.1328C823.005 36.1432 823.055 36.1484 823.086 36.1484C823.357 36.1484 823.586 36.1042 823.773 36.0156C823.966 35.9323 824.13 35.7891 824.266 35.5859C824.401 35.388 824.516 35.1146 824.609 34.7656L825.094 33.125ZM823.875 25.5469L825.555 32.1094L825.914 33.6328L824.93 34.1641L822.367 25.5469H823.875Z" fill="white" fill-opacity="0.5"/>
<path d="M1146.68 22.625H1148.07L1151.05 31.8984L1154.02 22.625H1155.41L1151.59 34H1150.49L1146.68 22.625ZM1146.23 22.625H1147.45L1147.66 29.5625V34H1146.23V22.625ZM1154.63 22.625H1155.85V34H1154.42V29.5625L1154.63 22.625ZM1160.09 33.125L1161.98 25.5469H1163.45L1160.66 35.3047C1160.59 35.513 1160.5 35.737 1160.38 35.9766C1160.27 36.2214 1160.13 36.4531 1159.96 36.6719C1159.79 36.8906 1159.58 37.0677 1159.34 37.2031C1159.1 37.3438 1158.82 37.4141 1158.5 37.4141C1158.4 37.4141 1158.27 37.3984 1158.12 37.3672C1157.97 37.3359 1157.86 37.3099 1157.79 37.2891V36.1172C1157.82 36.1224 1157.87 36.1276 1157.94 36.1328C1158.01 36.1432 1158.05 36.1484 1158.09 36.1484C1158.36 36.1484 1158.59 36.1042 1158.77 36.0156C1158.97 35.9323 1159.13 35.7891 1159.27 35.5859C1159.4 35.388 1159.52 35.1146 1159.61 34.7656L1160.09 33.125ZM1158.88 25.5469L1160.55 32.1094L1160.91 33.6328L1159.93 34.1641L1157.37 25.5469H1158.88ZM1169.71 22.625L1171.87 26.9844L1174.01 22.625H1175.68L1172.72 28.2578L1175.74 34H1174.05L1171.87 29.5547L1169.67 34H1167.98L1171.01 28.2578L1168.04 22.625H1169.71ZM1180.94 28.6797H1178.62L1178.61 27.4688H1180.76C1181.08 27.4688 1181.37 27.3958 1181.62 27.25C1181.87 27.1042 1182.06 26.8958 1182.2 26.625C1182.35 26.349 1182.42 26.0208 1182.42 25.6406C1182.42 25.224 1182.36 24.8854 1182.23 24.625C1182.11 24.3594 1181.93 24.1667 1181.68 24.0469C1181.43 23.9219 1181.12 23.8594 1180.74 23.8594H1178.93V34H1177.49V22.625H1180.74C1181.23 22.625 1181.67 22.6849 1182.05 22.8047C1182.44 22.9193 1182.77 23.1016 1183.03 23.3516C1183.3 23.5964 1183.51 23.9089 1183.65 24.2891C1183.79 24.6693 1183.86 25.125 1183.86 25.6562C1183.86 26.125 1183.75 26.5495 1183.54 26.9297C1183.33 27.3047 1183.04 27.612 1182.66 27.8516C1182.29 28.0911 1181.86 28.2448 1181.37 28.3125L1180.94 28.6797ZM1180.88 34H1178.03L1178.87 32.7734H1180.88C1181.26 32.7734 1181.58 32.6901 1181.84 32.5234C1182.1 32.3568 1182.29 32.1224 1182.43 31.8203C1182.57 31.513 1182.64 31.151 1182.64 30.7344C1182.64 30.3125 1182.58 29.9479 1182.47 29.6406C1182.35 29.3333 1182.17 29.0964 1181.92 28.9297C1181.67 28.763 1181.34 28.6797 1180.94 28.6797H1179.09L1179.1 27.4688H1181.6L1181.92 27.9062C1182.39 27.9531 1182.78 28.1094 1183.1 28.375C1183.42 28.6354 1183.67 28.9688 1183.83 29.375C1183.99 29.7812 1184.08 30.2292 1184.08 30.7188C1184.08 31.4271 1183.95 32.026 1183.68 32.5156C1183.42 33 1183.05 33.3698 1182.57 33.625C1182.09 33.875 1181.53 34 1180.88 34ZM1193.62 27.3281V29.3047C1193.62 30.1068 1193.54 30.8125 1193.36 31.4219C1193.19 32.026 1192.93 32.5312 1192.6 32.9375C1192.27 33.3438 1191.87 33.6484 1191.4 33.8516C1190.93 34.0547 1190.4 34.1562 1189.81 34.1562C1189.24 34.1562 1188.73 34.0547 1188.26 33.8516C1187.79 33.6484 1187.39 33.3438 1187.05 32.9375C1186.71 32.5312 1186.45 32.026 1186.26 31.4219C1186.08 30.8125 1185.98 30.1068 1185.98 29.3047V27.3281C1185.98 26.526 1186.08 25.8229 1186.26 25.2188C1186.44 24.6094 1186.7 24.1016 1187.04 23.6953C1187.38 23.2891 1187.78 22.9844 1188.25 22.7812C1188.72 22.5729 1189.24 22.4688 1189.8 22.4688C1190.39 22.4688 1190.92 22.5729 1191.39 22.7812C1191.86 22.9844 1192.27 23.2891 1192.59 23.6953C1192.93 24.1016 1193.18 24.6094 1193.36 25.2188C1193.54 25.8229 1193.62 26.526 1193.62 27.3281ZM1192.2 29.3047V27.3125C1192.2 26.6875 1192.15 26.151 1192.05 25.7031C1191.94 25.25 1191.79 24.8802 1191.59 24.5938C1191.38 24.3073 1191.13 24.0964 1190.84 23.9609C1190.54 23.8203 1190.2 23.75 1189.8 23.75C1189.43 23.75 1189.1 23.8203 1188.8 23.9609C1188.51 24.0964 1188.26 24.3073 1188.05 24.5938C1187.85 24.8802 1187.68 25.25 1187.57 25.7031C1187.46 26.151 1187.41 26.6875 1187.41 27.3125V29.3047C1187.41 29.9349 1187.46 30.4766 1187.57 30.9297C1187.68 31.3776 1187.85 31.7474 1188.05 32.0391C1188.27 32.3255 1188.52 32.5391 1188.82 32.6797C1189.12 32.8151 1189.45 32.8828 1189.81 32.8828C1190.2 32.8828 1190.55 32.8151 1190.84 32.6797C1191.15 32.5391 1191.4 32.3255 1191.59 32.0391C1191.8 31.7474 1191.95 31.3776 1192.05 30.9297C1192.15 30.4766 1192.2 29.9349 1192.2 29.3047ZM1196.73 22.625L1198.88 26.9844L1201.02 22.625H1202.7L1199.73 28.2578L1202.76 34H1201.07L1198.88 29.5547L1196.69 34H1194.99L1198.02 28.2578L1195.05 22.625H1196.73Z" fill="white" fill-opacity="0.5"/>
<path fill-rule="evenodd" clip-rule="evenodd" d="M1132.67 26.6667C1132.67 29.0833 1131.42 31.1666 1129.5 32.3333C1132.83 33.5 1135.33 36.4167 1136 40H1134.33C1133.5 36.1666 1130.08 33.3333 1126 33.3333C1121.92 33.3333 1118.5 36.1667 1117.67 40H1116C1116.67 36.5 1119.17 33.5833 1122.5 32.3333C1120.58 31.1667 1119.33 29.0833 1119.33 26.6667C1119.33 23 1122.33 20 1126 20C1129.67 20 1132.67 23 1132.67 26.6667ZM1126 21.6667C1123.25 21.6667 1121 23.9167 1121 26.6667C1121 29.4167 1123.25 31.6667 1126 31.6667C1128.75 31.6667 1131 29.4167 1131 26.6667C1131 23.9167 1128.75 21.6667 1126 21.6667Z" fill="#8DD83D"/>
<path d="M1231.88 27.1265C1231.71 26.9578 1231.44 26.9578 1231.28 27.1265L1226.01 32.5125L1220.72 27.1265C1220.56 26.9578 1220.29 26.9578 1220.12 27.1265C1219.96 27.2951 1219.96 27.5692 1220.12 27.7378L1225.7 33.419C1225.78 33.5033 1225.88 33.5455 1226 33.5455C1226.1 33.5455 1226.21 33.5033 1226.3 33.419L1231.87 27.7378C1232.04 27.5692 1232.04 27.2951 1231.88 27.1265Z" fill="#91DC5A"/>
<rect x="877.5" y="11.5" width="208.795" height="37" rx="3.5" fill="white" stroke="#CCCCCC"/>
<path opacity="0.39733" d="M899.188 32.125C899.188 31.8594 899.156 31.625 899.094 31.4219C899.031 31.2135 898.922 31.026 898.766 30.8594C898.609 30.6927 898.391 30.5339 898.109 30.3828C897.828 30.2318 897.471 30.0781 897.039 29.9219C896.57 29.7552 896.146 29.5703 895.766 29.3672C895.385 29.1589 895.06 28.9219 894.789 28.6562C894.523 28.3906 894.318 28.0859 894.172 27.7422C894.026 27.3984 893.953 27.0052 893.953 26.5625C893.953 26.1198 894.029 25.7109 894.18 25.3359C894.336 24.9609 894.555 24.6354 894.836 24.3594C895.122 24.0781 895.466 23.8594 895.867 23.7031C896.268 23.5469 896.716 23.4688 897.211 23.4688C897.951 23.4688 898.573 23.6328 899.078 23.9609C899.589 24.2839 899.974 24.7083 900.234 25.2344C900.495 25.7552 900.625 26.3125 900.625 26.9062H899.188C899.188 26.4792 899.117 26.1016 898.977 25.7734C898.841 25.4401 898.628 25.1797 898.336 24.9922C898.049 24.7995 897.674 24.7031 897.211 24.7031C896.794 24.7031 896.451 24.7839 896.18 24.9453C895.914 25.1068 895.716 25.3255 895.586 25.6016C895.461 25.8776 895.398 26.1927 895.398 26.5469C895.398 26.7865 895.44 27.0052 895.523 27.2031C895.607 27.3958 895.734 27.5755 895.906 27.7422C896.083 27.9089 896.302 28.0625 896.562 28.2031C896.828 28.3438 897.141 28.4792 897.5 28.6094C898.057 28.7917 898.534 28.9948 898.93 29.2188C899.326 29.4427 899.648 29.6953 899.898 29.9766C900.148 30.2526 900.331 30.5677 900.445 30.9219C900.565 31.2708 900.625 31.6667 900.625 32.1094C900.625 32.5729 900.547 32.9922 900.391 33.3672C900.24 33.7422 900.018 34.0625 899.727 34.3281C899.435 34.5938 899.083 34.7995 898.672 34.9453C898.26 35.0859 897.797 35.1562 897.281 35.1562C896.833 35.1562 896.393 35.0833 895.961 34.9375C895.534 34.7917 895.146 34.5729 894.797 34.2812C894.448 33.9896 894.169 33.6302 893.961 33.2031C893.753 32.7708 893.648 32.2708 893.648 31.7031H895.086C895.086 32.0938 895.143 32.4297 895.258 32.7109C895.372 32.987 895.531 33.2161 895.734 33.3984C895.938 33.5807 896.169 33.7161 896.43 33.8047C896.695 33.888 896.979 33.9297 897.281 33.9297C897.698 33.9297 898.047 33.8568 898.328 33.7109C898.615 33.5651 898.828 33.3568 898.969 33.0859C899.115 32.8151 899.188 32.4948 899.188 32.125ZM905.344 35.1562C904.839 35.1562 904.383 35.0807 903.977 34.9297C903.57 34.7786 903.224 34.5495 902.938 34.2422C902.651 33.9297 902.432 33.5365 902.281 33.0625C902.13 32.5885 902.055 32.0286 902.055 31.3828V30.4297C902.055 29.6849 902.141 29.0547 902.312 28.5391C902.49 28.0234 902.727 27.6094 903.023 27.2969C903.32 26.9792 903.656 26.75 904.031 26.6094C904.406 26.4635 904.792 26.3906 905.188 26.3906C905.719 26.3906 906.172 26.4766 906.547 26.6484C906.922 26.8203 907.227 27.0755 907.461 27.4141C907.695 27.7526 907.867 28.1693 907.977 28.6641C908.091 29.1589 908.148 29.7292 908.148 30.375V31.1797H902.867V30H906.766V29.8047C906.745 29.3672 906.685 28.9818 906.586 28.6484C906.492 28.3151 906.336 28.0547 906.117 27.8672C905.898 27.6745 905.589 27.5781 905.188 27.5781C904.932 27.5781 904.695 27.6224 904.477 27.7109C904.263 27.7943 904.078 27.9427 903.922 28.1562C903.771 28.3646 903.651 28.6536 903.562 29.0234C903.479 29.3932 903.438 29.862 903.438 30.4297V31.3828C903.438 31.8359 903.479 32.2266 903.562 32.5547C903.651 32.8776 903.779 33.1458 903.945 33.3594C904.117 33.5677 904.326 33.724 904.57 33.8281C904.82 33.9271 905.104 33.9766 905.422 33.9766C905.885 33.9766 906.268 33.888 906.57 33.7109C906.872 33.5286 907.135 33.2969 907.359 33.0156L908.086 33.8828C907.935 34.0964 907.737 34.3021 907.492 34.5C907.253 34.6927 906.956 34.8516 906.602 34.9766C906.253 35.0964 905.833 35.1562 905.344 35.1562ZM913.961 33.5547V28.9688C913.961 28.6354 913.909 28.3672 913.805 28.1641C913.706 27.9609 913.555 27.8125 913.352 27.7188C913.154 27.625 912.904 27.5781 912.602 27.5781C912.31 27.5781 912.057 27.638 911.844 27.7578C911.635 27.8776 911.474 28.0365 911.359 28.2344C911.25 28.4323 911.195 28.651 911.195 28.8906H909.812C909.812 28.5885 909.878 28.2891 910.008 27.9922C910.143 27.6953 910.336 27.4271 910.586 27.1875C910.836 26.9427 911.135 26.75 911.484 26.6094C911.839 26.4635 912.234 26.3906 912.672 26.3906C913.193 26.3906 913.654 26.4766 914.055 26.6484C914.456 26.8151 914.771 27.0885 915 27.4688C915.229 27.849 915.344 28.3542 915.344 28.9844V33.1562C915.344 33.4375 915.365 33.737 915.406 34.0547C915.453 34.3724 915.518 34.6458 915.602 34.875V35H914.172C914.104 34.8333 914.052 34.612 914.016 34.3359C913.979 34.0547 913.961 33.7943 913.961 33.5547ZM914.18 29.875L914.195 30.8906H913.234C912.906 30.8906 912.607 30.9271 912.336 31C912.07 31.0729 911.841 31.1797 911.648 31.3203C911.456 31.4557 911.307 31.625 911.203 31.8281C911.104 32.0312 911.055 32.263 911.055 32.5234C911.055 32.862 911.102 33.1328 911.195 33.3359C911.289 33.5339 911.43 33.6771 911.617 33.7656C911.805 33.8542 912.042 33.8984 912.328 33.8984C912.677 33.8984 912.984 33.8177 913.25 33.6562C913.516 33.4948 913.721 33.2995 913.867 33.0703C914.018 32.8411 914.089 32.6276 914.078 32.4297L914.383 33.0781C914.362 33.2812 914.294 33.5026 914.18 33.7422C914.07 33.9766 913.917 34.2031 913.719 34.4219C913.521 34.6354 913.286 34.8125 913.016 34.9531C912.75 35.0885 912.451 35.1562 912.117 35.1562C911.628 35.1562 911.198 35.0625 910.828 34.875C910.464 34.6875 910.18 34.4115 909.977 34.0469C909.773 33.6823 909.672 33.2318 909.672 32.6953C909.672 32.2891 909.742 31.9141 909.883 31.5703C910.023 31.2266 910.232 30.9297 910.508 30.6797C910.784 30.4245 911.13 30.2266 911.547 30.0859C911.969 29.9453 912.456 29.875 913.008 29.875H914.18ZM918.875 27.875V35H917.492V26.5469H918.828L918.875 27.875ZM920.977 26.5L920.984 27.8438C920.87 27.8177 920.766 27.8021 920.672 27.7969C920.583 27.7865 920.479 27.7812 920.359 27.7812C920.099 27.7812 919.87 27.8333 919.672 27.9375C919.479 28.0417 919.312 28.1875 919.172 28.375C919.031 28.5625 918.919 28.7865 918.836 29.0469C918.753 29.3021 918.695 29.5833 918.664 29.8906L918.305 30.125C918.305 29.6146 918.344 29.1354 918.422 28.6875C918.505 28.2396 918.633 27.8438 918.805 27.5C918.977 27.151 919.195 26.8802 919.461 26.6875C919.732 26.4896 920.055 26.3906 920.43 26.3906C920.513 26.3906 920.615 26.4036 920.734 26.4297C920.859 26.4505 920.94 26.474 920.977 26.5ZM925.141 33.9766C925.417 33.9766 925.667 33.9219 925.891 33.8125C926.12 33.6979 926.307 33.5208 926.453 33.2812C926.599 33.0365 926.682 32.7188 926.703 32.3281H928C927.979 32.8906 927.836 33.3854 927.57 33.8125C927.31 34.2344 926.966 34.5651 926.539 34.8047C926.117 35.0391 925.651 35.1562 925.141 35.1562C924.594 35.1562 924.117 35.0677 923.711 34.8906C923.31 34.7135 922.977 34.4583 922.711 34.125C922.451 33.7865 922.255 33.3776 922.125 32.8984C921.995 32.4141 921.93 31.8646 921.93 31.25V30.2969C921.93 29.6823 921.995 29.1354 922.125 28.6562C922.255 28.1719 922.451 27.763 922.711 27.4297C922.977 27.0911 923.31 26.8333 923.711 26.6562C924.117 26.4792 924.594 26.3906 925.141 26.3906C925.714 26.3906 926.208 26.513 926.625 26.7578C927.047 26.9974 927.375 27.3464 927.609 27.8047C927.849 28.2578 927.979 28.8073 928 29.4531H926.703C926.682 29.0365 926.607 28.6901 926.477 28.4141C926.346 28.1328 926.169 27.9245 925.945 27.7891C925.721 27.6484 925.453 27.5781 925.141 27.5781C924.776 27.5781 924.474 27.6432 924.234 27.7734C924 27.8984 923.815 28.0807 923.68 28.3203C923.544 28.5599 923.448 28.8464 923.391 29.1797C923.339 29.513 923.312 29.8854 923.312 30.2969V31.25C923.312 31.6615 923.339 32.0365 923.391 32.375C923.448 32.7083 923.542 32.9948 923.672 33.2344C923.807 33.474 923.995 33.6589 924.234 33.7891C924.474 33.9141 924.776 33.9766 925.141 33.9766ZM930.984 23V35H929.602V23H930.984ZM930.648 30.4531L930.086 30.4297C930.081 29.8516 930.146 29.3177 930.281 28.8281C930.422 28.3333 930.62 27.9036 930.875 27.5391C931.135 27.1745 931.445 26.8932 931.805 26.6953C932.164 26.4922 932.562 26.3906 933 26.3906C933.344 26.3906 933.656 26.4479 933.938 26.5625C934.219 26.6719 934.458 26.849 934.656 27.0938C934.854 27.3385 935.005 27.6562 935.109 28.0469C935.219 28.4323 935.273 28.9036 935.273 29.4609V35H933.891V29.4453C933.891 29.0026 933.841 28.6484 933.742 28.3828C933.648 28.112 933.503 27.9167 933.305 27.7969C933.112 27.6719 932.867 27.6094 932.57 27.6094C932.299 27.6094 932.047 27.6849 931.812 27.8359C931.578 27.987 931.372 28.1953 931.195 28.4609C931.023 28.7266 930.888 29.0312 930.789 29.375C930.695 29.7135 930.648 30.0729 930.648 30.4531Z" fill="#435766"/>
<path fill-rule="evenodd" clip-rule="evenodd" d="M225.275 29.0158C228.14 27.2269 227.474 23.4286 225.606 21.9466C223.983 20.6603 222.675 20.667 217.52 20.6936C216.691 20.6978 215.763 20.7026 214.718 20.7026C214.397 20.7026 214.136 20.9614 214.136 21.2802V28.1969C213.743 28.1969 213.417 28.1946 213.147 28.1928C211.915 28.1843 211.814 28.1836 211.63 28.4363C211.53 28.5738 211.439 28.6944 211.359 28.8017L211.359 28.8018C210.933 29.3694 210.788 29.5637 210.958 29.8949C211.13 30.2277 211.255 30.2268 212.842 30.2153C213.198 30.2127 213.627 30.2096 214.147 30.2096V37.7672C214.147 38.0861 214.407 38.3446 214.729 38.3448C221.032 38.3502 221.98 38.3471 223.141 38.1753C225.903 37.7684 227.63 36.001 227.761 33.4477C227.899 30.7993 226.319 29.7262 225.469 29.149C225.399 29.1014 225.334 29.0572 225.275 29.0158ZM218.713 28.1989H218.713C218.052 28.1963 217.278 28.1931 216.366 28.1926V22.7804C216.556 22.7497 220.415 22.7557 221.715 22.786C222.231 22.798 222.8 22.9027 223.363 23.0882C224.391 23.4286 224.955 24.1852 224.993 25.2762C225.035 26.4719 224.554 27.3053 223.564 27.7531C222.543 28.2144 222.204 28.213 218.713 28.1989ZM216.363 30.2029V36.2842C216.393 36.2877 216.412 36.2903 216.431 36.2924C216.525 36.3022 216.619 36.2977 217.812 36.3005C218.242 36.3016 218.636 36.3036 218.998 36.3054C221.834 36.3194 222.763 36.324 223.857 35.835C225.028 35.3102 225.632 34.2872 225.559 32.9555C225.4 30.0766 222.343 30.1227 218.268 30.184C217.654 30.1933 217.017 30.2029 216.363 30.2029Z" fill="#8DD83D"/>
<path fill-rule="evenodd" clip-rule="evenodd" d="M229.544 24.6814C232.915 18.2531 243.08 18.905 245.039 26.5642C246.486 32.217 243.849 38.3452 237.382 38.7087C229.486 39.1556 226.542 30.4054 229.544 24.6814ZM232.083 24.7943C229.239 28.5812 230.508 36.6356 236.943 36.6356C241.651 36.6356 243.952 32.0392 242.95 27.4606C241.677 21.6439 234.984 20.9319 232.083 24.7943Z" fill="#8DD83D"/>
<path d="M252.738 29.1128C258.727 21.0558 258.566 21.4737 258.344 21.0369C258.138 20.6324 257.798 20.7197 256.656 20.7197C256.25 20.7197 256.58 20.4251 251.413 27.3764C246.263 20.4552 246.584 20.7335 246.176 20.7335C245.029 20.7335 244.692 20.6476 244.487 21.0506C244.388 21.2453 244.408 21.4786 244.538 21.6541L250.087 29.1136C243.451 38.077 243.673 37.5751 243.896 38.0116C244.102 38.4146 244.439 38.3281 245.587 38.3281C245.772 38.3281 245.947 38.2409 246.056 38.0933L251.412 30.8921L256.763 38.0803C256.987 38.3809 257.208 38.3149 258.402 38.3149C258.621 38.3149 258.822 38.1924 258.921 37.9984C259.146 37.5589 259.339 38.0279 252.738 29.1128Z" fill="#8DD83D"/>
<path d="M206.689 29.1128C212.659 21.0876 212.521 21.4769 212.298 21.0383C212.199 20.8437 211.998 20.721 211.778 20.721C210.568 20.721 210.362 20.66 210.142 20.9558L205.363 27.3778C200.218 20.453 200.537 20.7299 200.13 20.7299C198.975 20.7299 198.651 20.6478 198.447 21.0471C198.348 21.2415 198.368 21.4748 198.498 21.6503L204.045 29.113C197.406 38.0738 197.628 37.5713 197.851 38.0082C198.057 38.4108 198.391 38.3249 199.545 38.3249C199.951 38.3249 199.556 38.7027 205.367 30.893C211.182 38.7066 210.787 38.3249 211.192 38.3249C211.221 38.3249 212.379 38.3249 212.369 38.3249C212.877 38.3249 213.137 37.726 212.8 37.359L206.689 29.1128Z" fill="#8DD83D"/>
<path d="M171.785 17.2593C173.313 17.4446 175.195 18.1231 177.38 19.2761C177.518 19.3489 177.687 19.351 177.83 19.2748C179.984 18.1216 181.854 17.4396 183.389 17.2474C183.86 17.1883 183.962 16.5508 183.529 16.3517C179.828 14.6474 175.578 14.5359 171.641 16.3642C171.449 16.4534 171.34 16.6579 171.373 16.8655C171.407 17.0732 171.575 17.2338 171.785 17.2593Z" fill="#8DD83D"/>
<path d="M187.542 38.805C187.517 38.6232 186.823 34.271 177.861 26.9247C177.687 26.7825 177.437 26.7802 177.261 26.9196C169.367 33.1688 166.554 39.1463 167.844 40.2476C170.892 42.8546 173.809 43.967 177.597 43.967C181.713 43.967 184.322 42.5977 187.198 40.3879C187.753 39.9611 187.552 38.8591 187.546 38.8282L187.542 38.805Z" fill="#8DD83D"/>
<path d="M187.619 19.1991C186.013 18.9435 182.982 21.6459 181.807 22.7772C181.631 22.9464 181.614 23.2204 181.767 23.41C187.544 30.5717 189.005 34.6611 189.214 36.8303C189.234 37.0322 189.381 37.1993 189.58 37.2451C189.781 37.2912 189.987 37.2034 190.093 37.0322C191.483 34.7851 192.218 32.1846 192.218 29.5117C192.218 23.6147 188.149 19.2833 187.619 19.1991Z" fill="#8DD83D"/>
<path d="M173.403 22.7775C170.037 19.5349 168.355 19.1848 167.788 19.1848C167.718 19.1848 167.652 19.1896 167.591 19.1993C167.493 19.2149 167.403 19.2607 167.332 19.33C162.631 23.9496 161.546 31.2611 165.117 37.0328C165.205 37.1747 165.36 37.2579 165.522 37.2579C165.768 37.2579 165.973 37.073 165.996 36.8311C166.205 34.6617 167.666 30.5723 173.443 23.4104C173.596 23.2205 173.578 22.9466 173.403 22.7775Z" fill="#8DD83D"/>
<path d="M168.68 36.4277C167.89 37.8452 167.709 38.6671 167.703 38.6935C167.632 39.1203 167.592 39.9603 167.935 40.2477C171.04 42.8548 174.012 43.9672 177.87 43.9672C178.577 43.9672 179.237 43.925 179.865 43.8499C175.032 43.2604 170.919 40.4154 168.68 36.4277Z" fill="#79C422"/>
<path d="M166.869 29.5039C166.869 25.9496 168.189 22.6967 170.374 20.1786C169.021 19.3186 168.234 19.1846 167.878 19.1846C167.806 19.1846 167.739 19.1894 167.678 19.1991C167.577 19.2147 167.485 19.2604 167.413 19.3298C162.624 23.9493 161.519 31.2608 165.157 37.0326C165.246 37.1744 165.404 37.2577 165.57 37.2577C165.82 37.2577 166.029 37.0727 166.052 36.8309C166.144 35.8992 166.472 34.6122 167.281 32.8811C167.014 31.7972 166.869 30.6675 166.869 29.5039Z" fill="#79C422"/>
<path d="M173.377 17.5413C175.251 16.3 177.431 15.468 179.784 15.1683C176.817 14.7816 174.224 15.2601 171.803 16.364C171.608 16.4532 171.496 16.6577 171.53 16.8654C171.611 17.3602 171.998 17.1753 173.377 17.5413Z" fill="#79C422"/>
</svg>
